<svg fill="#000000" xmlns="http://www.w3.org/2000/svg"  viewBox="0 0 32 32" width="32px" height="32px"><path d="M20.524 7.496c0 0 2.655-2.496 5.814-2.496 1.533 3.572-.078 6.469-.078 6.469L20.524 7.496zM5.754 10.999c0 0-.754-.722-.754-2.764S5.696 5 5.696 5c1.122 0 3.848.528 5.975 2.853C13.877 10.264 5.754 10.999 5.754 10.999z"/><path d="M16,7C9.265,7,3,10.086,3,17.329S7.59,27,16,27s13-2.428,13-9.671C29,9.629,22.735,7,16,7z M16,26c-5.345,0-9.677-0.951-9.677-5.948c0-1.906,1.041-2.982,1.786-3.654c1.639-1.478,4.217-0.741,7.891-0.741c2.672,0,5.155-0.534,6.986,0.049c1.831,0.583,3.01,2.283,3.01,4.172C25.995,25.112,23.192,26,16,26z"/><path d="M21.5 18c-.828 0-1.5.895-1.5 2s.672 2 1.5 2 1.5-.895 1.5-2S22.328 18 21.5 18zM21.336 19.71c-.236 0-.427-.194-.427-.434s.191-.434.427-.434.427.194.427.434S21.572 19.71 21.336 19.71zM10.5 18C9.672 18 9 18.895 9 20s.672 2 1.5 2 1.5-.895 1.5-2S11.328 18 10.5 18zM10.336 19.71c-.236 0-.427-.194-.427-.434s.191-.434.427-.434.427.194.427.434S10.572 19.71 10.336 19.71z"/></svg>